inDegrees=no
num_controls=7
num_derivatives=13
num_iterations=126
num_multipliers=7
num_parameters=0
num_slacks=7
num_states=26
objective=0.517362
objective_accelerations=0.038995
objective_balance=0.002185
objective_effort=0.043002
objective_height=0.421502
objective_ligament=0.011678
solver_duration=1641.407862
status=Solve_Succeeded
success=true
DataType=double
version=3
OpenSimVersion=4.5
endheader
time	/jointset/ground_pelvis/pelvis_tilt/value	/jointset/ground_pelvis/pelvis_tx/value	/jointset/ground_pelvis/pelvis_ty/value	/jointset/hip_l/hip_flexion_l/value	/jointset/hip_l/hip_adduction_l/value	/jointset/hip_l/hip_rotation_l/value	/jointset/back/lumbar_extension/value	/jointset/patellofemoral_l/patellar_flexion_l/value	/jointset/knee_l/knee_flexion_l/value	/jointset/knee_l/knee_adduction_l/value	/jointset/knee_l/knee_rotation_l/value	/jointset/ankle_l/ankle_angle_l/value	/jointset/subtalar_l/subtalar_angle_l/value	/jointset/ground_pelvis/pelvis_tilt/speed	/jointset/ground_pelvis/pelvis_tx/speed	/jointset/ground_pelvis/pelvis_ty/speed	/jointset/hip_l/hip_flexion_l/speed	/jointset/hip_l/hip_adduction_l/speed	/jointset/hip_l/hip_rotation_l/speed	/jointset/back/lumbar_extension/speed	/jointset/patellofemoral_l/patellar_flexion_l/speed	/jointset/knee_l/knee_flexion_l/speed	/jointset/knee_l/knee_adduction_l/speed	/jointset/knee_l/knee_rotation_l/speed	/jointset/ankle_l/ankle_angle_l/speed	/jointset/subtalar_l/subtalar_angle_l/speed	/forceset/tau_hip_flexion_l	/forceset/tau_hip_adduction_l	/forceset/tau_hip_rotation_l	/forceset/tau_knee_flexion_l	/forceset/tau_ankle_angle_l	/forceset/tau_subtalar_angle_l	/forceset/tau_lumbar_extension	lambda_cid13_p0	lambda_cid13_p1	lambda_cid13_p2	lambda_cid13_p3	lambda_cid13_p4	lambda_cid13_p5	lambda_cid14_p0	/jointset/ground_pelvis/pelvis_tilt/accel	/jointset/ground_pelvis/pelvis_tx/accel	/jointset/ground_pelvis/pelvis_ty/accel	/jointset/hip_l/hip_flexion_l/accel	/jointset/hip_l/hip_adduction_l/accel	/jointset/hip_l/hip_rotation_l/accel	/jointset/back/lumbar_extension/accel	/jointset/patellofemoral_l/patellar_flexion_l/accel	/jointset/knee_l/knee_flexion_l/accel	/jointset/knee_l/knee_adduction_l/accel	/jointset/knee_l/knee_rotation_l/accel	/jointset/ankle_l/ankle_angle_l/accel	/jointset/subtalar_l/subtalar_angle_l/accel	gamma_cid13_p0	gamma_cid13_p1	gamma_cid13_p2	gamma_cid13_p3	gamma_cid13_p4	gamma_cid13_p5	gamma_cid14_p0
1.5	-0.01069131865584365	-0.02391963148795173	0.8707095603453804	0.6198754643014643	-0.3120965394143473	-0.1807009972699184	-0.7831313171056389	0.6308817203886536	0.6308817203886142	-0.1089639739552595	-0.1745095691478012	0.06971652625419188	0.006041327347015178	0.3780057816780877	0.2766031232227927	0.3345360757220394	-1.834239298668598	0.09411369627700351	-0.5282476197376686	0.8410868963054212	-1.61695793522325	-1.61695793522316	-0.1261397426986978	-3.576433635161887e-05	-0.2479103762078984	0.02199388631837176	-0.2022458472400726	0.01786804883414594	-0.003844430223979465	-0.1891611731088248	0.09547254490183295	0.04359799823923662	0.2791758752252299	-12.06675993966684	-19.0101434034097	5.076034340941893	-8.217842496460381	-673.8237065029562	-78.88582319946855	-20.17695287623614	-0.0143722428442723	0.6176363976025444	-0.4891192232094018	-0.6198509387299354	0.3084910828272164	-0.212195084429197	1.740731692426218	-0.6167125158283254	-0.6167125158284139	-0.295042723616958	0.03580920197534953	0.04068139422717441	0.3312125277815133	-6.43938790643213e-09	9.55576461021297e-07	1.58359792998231e-07	1.524408100505691e-07	6.642114945582211e-08	1.365690380542778e-07	8.976793582840715e-08
1.51	-0.006912470018094071	-0.02112300825900248	0.8740298326532069	0.6015041296056673	-0.3111403783450048	-0.1859953005017013	-0.7746346030864636	0.6146832815290656	0.6146832815290704	-0.1102399179690193	-0.1745099139919689	0.06723973387768806	0.006277480670925692	0.3777091954281538	0.2826892649677266	0.3294565304128776	-1.839796716651293	0.09711336206158613	-0.5305687215724086	0.858139976525403	-1.622523565263994	-1.622523565263962	-0.1290376013397024	-3.626004601386769e-05	-0.2474050468712626	0.02524336552120968	-0.1948192070697161	0.01700033398231922	-0.003826093821853102	-0.1866442445659078	0.09516737939621374	0.04270265866165408	0.2722568664915749	-11.98287505571277	-18.68287103537855	5.077413276100807	-7.994575278774667	-670.2103216316847	-78.81269994820809	-20.63254487634388	-0.0455246658800504	0.5992973509577331	-0.5266378380411412	-0.4890613182467539	0.2947608985633888	-0.2353492854505103	1.670206536121551	-0.4955654154272333	-0.4955654154359876	-0.2852479972640564	-0.01842050027949398	0.06194292237806979	0.3226170457928172	-1.433232369196321e-08	1.003466727843062e-06	1.914010323322004e-07	1.604919527932306e-07	6.436543683250371e-08	1.396819462247055e-07	8.953102678427409e-08
1.52	-0.00313823181280586	-0.01826648475500016	0.8772974563772875	0.5830841459120019	-0.3101544093033575	-0.1913114710623239	-0.7659708361952209	0.5984353709356227	0.598435370935674	-0.1115444586817726	-0.1745103521018038	0.0647692916383498	0.006546289072716185	0.3770836951857369	0.2885831782334059	0.3240063589728579	-1.843969098242285	0.1000752907377529	-0.5326210855053132	0.8744974707188831	-1.626852281993933	-1.626852281993959	-0.1318590824975811	-5.441746937531229e-05	-0.2466403487747756	0.02852490189436276	-0.1873925668993627	0.01613261913048982	-0.00380775741970344	-0.1841273160229927	0.09486221389059379	0.04180731908406792	0.2653378577579184	-11.90494544079485	-18.35448142490424	5.078528890140921	-7.773824442127341	-666.6978013118456	-78.75636400978279	-21.06397458654856	-0.08015504134085931	0.5791907017516341	-0.5632444493809818	-0.3428436603892234	0.3009436611440383	-0.1584475040621174	1.601614487125933	-0.3693298536674264	-0.369329853667423	-0.2797672269917577	0.03227685923550525	0.09255514619740936	0.3376239618445428	-1.0643172242603e-08	1.015544043125099e-06	1.650926292823433e-07	1.571421429960006e-07	7.487988242967223e-08	1.494226372672216e-07	9.317486843058472e-08
1.53	0.0006281314992160859	-0.01535204093130036	0.8805087628068977	0.5646293890665245	-0.3091391470479508	-0.1966463845302732	-0.7571471968767108	0.5821504519538768	0.5821504519539372	-0.1128772614036385	-0.174510811755051	0.06230779292025718	0.006847922032841263	0.3761336413128953	0.2942669184626123	0.3181960651646339	-1.846737653128107	0.1029631529380499	-0.5343012238418935	0.8900941546172214	-1.629906207387352	-1.629906207387371	-0.1347005977759322	-3.561029329388605e-05	-0.2456119621981811	0.03180038387330921	-0.179737337616971	0.01503198008235772	-0.003844231746735549	-0.181820084403553	0.09477647748713193	0.04089573565424746	0.2582082076694267	-11.75815833018322	-18.02813486325392	5.076590649956172	-7.560543274427446	-663.1786232219275	-78.73446144901949	-21.46852747271433	-0.1107367554636895	0.5571921570328231	-0.5987288083976987	-0.2071770407790751	0.2804650145424958	-0.1636508255587218	1.51825958626786	-0.2396488570809236	-0.2396488570798688	-0.2860423832384004	-0.01304892464939285	0.1151199764147319	0.32215706362648	5.351946893829076e-09	9.895700973961743e-07	7.572523119967115e-08	1.416788211251361e-07	9.875012113610797e-08	1.662053476113314e-07	1.009420076854918e-07
1.54	0.00438333303346844	-0.01238191441060306	0.8836602049060549	0.5461542835445691	-0.3080954546675282	-0.201996270147008	-0.7481716778702008	0.5658417487232184	0.5658417487232853	-0.1142384190192858	-0.1745110296508226	0.05985800598053561	0.007182239162297168	0.3748513396317358	0.2997197176329077	0.312033492882245	-1.848038833537946	0.1057613157411451	-0.5356155152625822	0.9048734083187648	-1.631609131776839	-1.631609131776851	-0.137530061253548	-6.065974967169908e-06	-0.244297993100616	0.03506173576052707	-0.1720821083345748	0.01393134103422703	-0.003880706073795617	-0.1795128527841072	0.09469074108367323	0.03998415222443173	0.2510785575809373	-11.61719935793678	-17.70013424276642	5.073665138013546	-7.349827885615698	-659.7584626556088	-78.73245044271738	-21.84354210210997	-0.1466046030044583	0.5330024899694393	-0.6337001442139585	-0.04936876519238596	0.2830037817036803	-0.0852781208838055	1.438128447766931	-0.09912965288093074	-0.09912965288093813	-0.2773568668447041	0.03442428768455921	0.1496716503915303	0.3347979434988218	1.094000416185129e-08	9.759758678577366e-07	3.766070088889854e-08	1.330674747030191e-07	1.126811767601573e-07	1.737072622091895e-07	1.03093265763343e-07
1.55	0.008124044387064652	-0.009358522782910153	0.8867483072342449	0.5276736658490132	-0.3070241453371467	-0.2073576646964047	-0.7390526996264594	0.5495228753002691	0.5495228753003892	-0.1156275009358364	-0.1745110002242662	0.0574227696740934	0.007549191806843184	0.3732359159227787	0.3049087226867377	0.3055326585511131	-1.847822334440801	0.1084884907838631	-0.5366162263648844	0.9187593741710574	-1.631925636451366	-1.631925636451338	-0.1402639119494269	1.806804420168663e-06	-0.2427034670997179	0.03832959375584691	-0.1643116858097593	0.01283684614494262	-0.003964113549400874	-0.1772128399039359	0.09448737789443205	0.03897334928083605	0.2438010678104088	-11.52465023279222	-17.31865712394694	5.060033048430109	-7.012630842730474	-656.3883131088229	-78.65064423593486	-22.18641922149166	-0.17727364811459	0.5043931207946792	-0.6663989006604311	0.0965038874992251	0.2656162962150675	-0.1003138981182341	1.339400715160969	0.03805730459546055	0.03805730460141162	-0.2678633909556834	-0.01756296622110758	0.1712368338191547	0.3227374626679319	4.537316233662791e-09	9.766452243648588e-07	5.870599648922428e-08	1.323507956457629e-07	1.151605649197185e-07	1.705160860559322e-07	9.877405205023919e-08
1.56	0.01184694902491802	-0.00628473238313806	0.8897697764545044	0.5092030820724956	-0.3059259558702065	-0.2127276356154678	-0.7297997477119544	0.5332080304664409	0.5332080304666159	-0.1170432142033448	-0.174511198417773	0.05500485737943619	0.007948814578366263	0.371289996482889	0.3097994720487449	0.2987068712960958	-1.846032049730405	0.1111373430529498	-0.5373307891957785	0.9316681424713742	-1.630803413952531	-1.630803413952464	-0.1428563314451548	-5.15899876697787e-05	-0.2408331907436111	0.04159576115594129	-0.1565412632849438	0.01174235125565561	-0.004047521024997011	-0.1749128270237625	0.09428401470519138	0.0379625463372371	0.2365235780398804	-11.43804725162588	-16.93493814122685	5.044672143239675	-6.675120627629196	-653.1171777195304	-78.58391474195342	-22.49469998172856	-0.2127037491909591	0.4733513516048701	-0.6986907289910538	0.2653883574579968	0.2673392269774338	-0.02804846660218357	1.24268893737181	0.1886157817913684	0.188615781791367	-0.2490706268145315	0.02217037338910044	0.2048217214332639	0.3344598244537266	2.609624380968827e-08	9.699573077632695e-07	-4.031956647310016e-08	1.15583956983875e-07	1.56853917798155e-07	2.017600117006577e-07	1.099961150167099e-07
1.57	0.01554883567468695	-0.003163580926506546	0.892721463561905	0.490757909971407	-0.3048020017577729	-0.2181025928442938	-0.7204229140745784	0.5169112635718984	0.516911263572052	-0.1184851807342182	-0.1745117659034236	0.05260679047964419	0.008380644986480369	0.3690256469489842	0.3143743331777966	0.2915822796529828	-1.84272787794026	0.1136359917157102	-0.5375994768976026	0.9435210590793329	-1.628306427805062	-1.628306427805025	-0.1455202822633429	-6.182772380682871e-05	-0.2387373590696726	0.04476458529011321	-0.1485716789192605	0.01043546198101119	-0.004187705687892613	-0.1729856544603157	0.09446407377691537	0.0368908252684849	0.2291229997434864	-11.2466938887056	-16.53744449992865	5.020650969916606	-6.353255276262116	-650.0645113923672	-78.53766115755326	-22.76657212874239	-0.242553207084557	0.4410920885111236	-0.72652400319288	0.4041093076207782	0.2384218657262471	-0.01695797808274162	1.129964133803935	0.316738945652908	0.316738945648302	-0.2724165968669202	-0.0127122893114754	0.2184139825480851	0.3071342350866381	8.260719076598087e-08	9.540727997757907e-07	-2.894337026387358e-07	7.875441881619772e-08	2.475647265751852e-07	2.760478145928615e-07	1.406447738326485e-07
